<?xml version="1.0" standalone="no"?><!DOCTYPE svg PUBLIC "-//W3C//DTD SVG 1.1//EN" "http://www.w3.org/Graphics/SVG/1.1/DTD/svg11.dtd"><svg t="1611926118311" class="icon" viewBox="0 0 1024 1024" version="1.1" xmlns="http://www.w3.org/2000/svg" p-id="1995" xmlns:xlink="http://www.w3.org/1999/xlink" width="64" height="64"><defs><style type="text/css"></style></defs><path d="M819.2 102.4h-307.2a102.4 102.4 0 0 0-72.3968 30.0032l-358.4 358.4a102.4 102.4 0 0 0 0 144.7936l307.2 307.2c19.968 20.0192 46.1824 30.0032 72.3968 30.0032s52.4288-9.984 72.3968-30.0032l358.4-358.4A102.4 102.4 0 0 0 921.6 512V204.8a102.4 102.4 0 0 0-102.4-102.4z m0 409.6l-358.4 358.4-307.2-307.2 358.4-358.4h307.2v307.2z" p-id="1996"></path><path d="M640 384m-76.8 0a76.8 76.8 0 1 0 153.6 0 76.8 76.8 0 1 0-153.6 0Z" p-id="1997"></path></svg>