<?xml version="1.0" standalone="no"?><!DOCTYPE svg PUBLIC "-//W3C//DTD SVG 1.1//EN" "http://www.w3.org/Graphics/SVG/1.1/DTD/svg11.dtd"><svg t="1611926336473" class="icon" viewBox="0 0 1024 1024" version="1.1" xmlns="http://www.w3.org/2000/svg" p-id="8407" xmlns:xlink="http://www.w3.org/1999/xlink" width="64" height="64"><defs><style type="text/css"></style></defs><path d="M409.876387 321.267441a247.755054 247.755054 0 0 0 101.505385 22.294864 254.014617 254.014617 0 0 0 102.046334-22.101668c241.03182 131.953136 359.345291 274.029764 359.345291 425.2639 0 109.001405-37.402822 167.694469-115.029132 197.63991-64.102563 24.767778-132.069054 29.597687-311.355307 29.211294h-68.932473c-179.208974 0.386393-247.291383-4.443517-311.239389-29.211294-77.587671-29.945441-114.990493-88.638505-114.990493-197.63991 0-162.555445 117.965717-304.400237 358.649784-425.457096z m-262.360702 670.043729c72.603204 28.013477 143.390363 33.036583 330.056718 32.650191h68.700637c186.743633 0.386393 257.530792-4.636713 330.172635-32.650191 97.98921-37.827854 147.524766-115.570082 147.524766-244.586633 0-175.808717-134.001018-334.036563-397.327702-475.649519a25.811038 25.811038 0 0 0-23.647238-0.463671 206.951976 206.951976 0 0 1-91.613729 22.565338A199.108202 199.108202 0 0 1 421.197695 270.534068a26.004234 26.004234 0 0 0-23.183567 0C134.223773 400.477962 0.029559 559.169479 0.029559 746.608619c0 129.132469 49.535555 206.874697 147.486126 244.702551zM365.634413 83.635878a24.806417 24.806417 0 0 1-0.463672-14.451091 25.69512 25.69512 0 0 1 31.336455-17.889986 449.104335 449.104335 0 0 0 231.024247 0 26.351988 26.351988 0 0 1 14.682926 0.463672 25.115531 25.115531 0 0 1 16.189857 31.877405L590.128621 285.216994a25.076892 25.076892 0 0 0 16.189858 31.838765 25.656481 25.656481 0 0 0 32.379715-15.919382l68.275606-201.542477A75.346593 75.346593 0 0 0 658.404226 3.961685a78.051343 78.051343 0 0 0-44.048777-1.352375 397.211784 397.211784 0 0 1-204.788176 0 76.892164 76.892164 0 0 0-93.970726 53.631319 74.419251 74.419251 0 0 0 1.352375 43.353271l68.275605 201.542477a25.617842 25.617842 0 0 0 32.379715 15.919382 25.076892 25.076892 0 0 0 16.189858-31.838765z m183.575212 385.929114h-70.980354a93.507054 93.507054 0 0 0-94.241201 92.734268 104.905641 104.905641 0 0 0 89.372651 103.089596l69.202948 10.818998a54.09499 54.09499 0 0 1 46.367135 53.322204 42.735042 42.735042 0 0 1-43.044157 42.503206H474.906293a39.257507 39.257507 0 0 1-39.566622-38.948392 25.617842 25.617842 0 0 0-51.197044 0 90.068158 90.068158 0 0 0 90.763666 89.334012h70.980354a93.507054 93.507054 0 0 0 94.241201-92.734269 104.905641 104.905641 0 0 0-89.372652-103.089595l-69.202948-10.818998a54.09499 54.09499 0 0 1-46.367134-53.322204 42.735042 42.735042 0 0 1 43.044157-42.503207h70.980354a39.257507 39.257507 0 0 1 39.566622 38.948393 25.617842 25.617842 0 0 0 51.197044 0 90.068158 90.068158 0 0 0-90.763666-89.334012z m-62.827467 25.19281a25.617842 25.617842 0 0 0 51.197044 0V444.410822a25.617842 25.617842 0 0 0-51.197044 0v50.231062z m0 352.776613a25.617842 25.617842 0 0 0 51.197044 0v-50.231062a25.617842 25.617842 0 0 0-51.197044 0v50.231062z" fill="" p-id="8408"></path></svg>